<mxfile host="app.diagrams.net" modified="2024-05-15T10:50:27.690Z" agent="Mozilla/5.0 (Windows NT 10.0; Win64; x64) AppleWebKit/537.36 (KHTML, like Gecko) Chrome/122.0.0.0 YaBrowser/24.4.0.0 Safari/537.36" etag="u0591IE9bxz0T5H_uniK" version="24.4.0" type="device">
  <diagram name="Страница — 1" id="qmzb_Em4d7-lKVs6cK5-">
    <mxGraphModel dx="1313" dy="748" grid="1" gridSize="10" guides="1" tooltips="1" connect="1" arrows="1" fold="1" page="1" pageScale="1" pageWidth="827" pageHeight="1169" math="0" shadow="0">
      <root>
        <mxCell id="0" />
        <mxCell id="1" parent="0" />
        <mxCell id="qgOPRccc0iJquqA98cd3-1" value="Заказчик" style="shape=umlActor;verticalLabelPosition=bottom;verticalAlign=top;html=1;" vertex="1" parent="1">
          <mxGeometry x="350" y="1950" width="30" height="60" as="geometry" />
        </mxCell>
        <mxCell id="qgOPRccc0iJquqA98cd3-2" value="Поставщик сырья" style="shape=umlActor;verticalLabelPosition=bottom;verticalAlign=top;html=1;" vertex="1" parent="1">
          <mxGeometry x="350" y="960" width="30" height="60" as="geometry" />
        </mxCell>
        <mxCell id="qgOPRccc0iJquqA98cd3-3" value="Компания" style="shape=umlActor;verticalLabelPosition=bottom;verticalAlign=top;html=1;" vertex="1" parent="1">
          <mxGeometry x="350" y="1470" width="30" height="60" as="geometry" />
        </mxCell>
        <mxCell id="qgOPRccc0iJquqA98cd3-4" value="Управление производством" style="ellipse;whiteSpace=wrap;html=1;" vertex="1" parent="1">
          <mxGeometry x="530" y="1230" width="120" height="80" as="geometry" />
        </mxCell>
        <mxCell id="qgOPRccc0iJquqA98cd3-5" value="Управление складом" style="ellipse;whiteSpace=wrap;html=1;" vertex="1" parent="1">
          <mxGeometry x="530" y="1470" width="120" height="80" as="geometry" />
        </mxCell>
        <mxCell id="qgOPRccc0iJquqA98cd3-6" value="Контроль качества" style="ellipse;whiteSpace=wrap;html=1;" vertex="1" parent="1">
          <mxGeometry x="530" y="1350" width="120" height="80" as="geometry" />
        </mxCell>
        <mxCell id="qgOPRccc0iJquqA98cd3-7" value="Создание и обработка заказов складом" style="ellipse;whiteSpace=wrap;html=1;" vertex="1" parent="1">
          <mxGeometry x="530" y="1590" width="120" height="80" as="geometry" />
        </mxCell>
        <mxCell id="qgOPRccc0iJquqA98cd3-8" value="Взаимодействие с заказчиками и поставщиками" style="ellipse;whiteSpace=wrap;html=1;" vertex="1" parent="1">
          <mxGeometry x="530" y="1700" width="120" height="80" as="geometry" />
        </mxCell>
        <mxCell id="qgOPRccc0iJquqA98cd3-9" value="Оформление договора о поставках сырья" style="ellipse;whiteSpace=wrap;html=1;" vertex="1" parent="1">
          <mxGeometry x="530" y="1120" width="120" height="80" as="geometry" />
        </mxCell>
        <mxCell id="qgOPRccc0iJquqA98cd3-10" value="Оформление договора" style="ellipse;whiteSpace=wrap;html=1;" vertex="1" parent="1">
          <mxGeometry x="530" y="1810" width="120" height="80" as="geometry" />
        </mxCell>
        <mxCell id="qgOPRccc0iJquqA98cd3-11" value="" style="endArrow=none;html=1;rounded=0;entryX=0.039;entryY=0.295;entryDx=0;entryDy=0;entryPerimeter=0;" edge="1" parent="1" target="qgOPRccc0iJquqA98cd3-9">
          <mxGeometry width="50" height="50" relative="1" as="geometry">
            <mxPoint x="390" y="1010" as="sourcePoint" />
            <mxPoint x="550" y="1180" as="targetPoint" />
          </mxGeometry>
        </mxCell>
        <mxCell id="qgOPRccc0iJquqA98cd3-12" value="" style="endArrow=none;html=1;rounded=0;exitX=0;exitY=0.5;exitDx=0;exitDy=0;" edge="1" parent="1" source="qgOPRccc0iJquqA98cd3-9">
          <mxGeometry width="50" height="50" relative="1" as="geometry">
            <mxPoint x="250" y="1230" as="sourcePoint" />
            <mxPoint x="370" y="1460" as="targetPoint" />
          </mxGeometry>
        </mxCell>
        <mxCell id="qgOPRccc0iJquqA98cd3-13" value="" style="endArrow=none;html=1;rounded=0;exitX=-0.007;exitY=0.435;exitDx=0;exitDy=0;exitPerimeter=0;" edge="1" parent="1" source="qgOPRccc0iJquqA98cd3-10">
          <mxGeometry width="50" height="50" relative="1" as="geometry">
            <mxPoint x="420" y="1550" as="sourcePoint" />
            <mxPoint x="380" y="1560" as="targetPoint" />
          </mxGeometry>
        </mxCell>
        <mxCell id="qgOPRccc0iJquqA98cd3-14" value="" style="endArrow=none;html=1;rounded=0;exitX=0.026;exitY=0.663;exitDx=0;exitDy=0;exitPerimeter=0;" edge="1" parent="1" source="qgOPRccc0iJquqA98cd3-10">
          <mxGeometry width="50" height="50" relative="1" as="geometry">
            <mxPoint x="540" y="1650" as="sourcePoint" />
            <mxPoint x="380" y="1950" as="targetPoint" />
          </mxGeometry>
        </mxCell>
        <mxCell id="qgOPRccc0iJquqA98cd3-15" value="Планирование производственных процессов.вора" style="ellipse;whiteSpace=wrap;html=1;" vertex="1" parent="1">
          <mxGeometry x="850" y="1040" width="120" height="80" as="geometry" />
        </mxCell>
        <mxCell id="qgOPRccc0iJquqA98cd3-16" value="Отслеживание выполнения производственных задач." style="ellipse;whiteSpace=wrap;html=1;" vertex="1" parent="1">
          <mxGeometry x="850" y="1150" width="120" height="80" as="geometry" />
        </mxCell>
        <mxCell id="qgOPRccc0iJquqA98cd3-17" value="Обслуживание и ремонт оборудования." style="ellipse;whiteSpace=wrap;html=1;" vertex="1" parent="1">
          <mxGeometry x="850" y="1260" width="120" height="80" as="geometry" />
        </mxCell>
        <mxCell id="qgOPRccc0iJquqA98cd3-18" value="Проведение контроля качества готовой продукции." style="ellipse;whiteSpace=wrap;html=1;" vertex="1" parent="1">
          <mxGeometry x="850" y="1370" width="120" height="80" as="geometry" />
        </mxCell>
        <mxCell id="qgOPRccc0iJquqA98cd3-19" value="Регистрация результатов контроля качества." style="ellipse;whiteSpace=wrap;html=1;" vertex="1" parent="1">
          <mxGeometry x="850" y="1470" width="120" height="80" as="geometry" />
        </mxCell>
        <mxCell id="qgOPRccc0iJquqA98cd3-20" value="Приемка и проверка поступающих материалов и комплектующих.дукции." style="ellipse;whiteSpace=wrap;html=1;" vertex="1" parent="1">
          <mxGeometry x="835" y="1580" width="150" height="80" as="geometry" />
        </mxCell>
        <mxCell id="qgOPRccc0iJquqA98cd3-21" value="Размещение материалов и комплектующих на складе." style="ellipse;whiteSpace=wrap;html=1;" vertex="1" parent="1">
          <mxGeometry x="850" y="1690" width="120" height="80" as="geometry" />
        </mxCell>
        <mxCell id="qgOPRccc0iJquqA98cd3-22" value="Выдача материалов и комплектующих для производства." style="ellipse;whiteSpace=wrap;html=1;" vertex="1" parent="1">
          <mxGeometry x="850" y="1790" width="120" height="80" as="geometry" />
        </mxCell>
        <mxCell id="qgOPRccc0iJquqA98cd3-23" value="Управление поставками:" style="ellipse;whiteSpace=wrap;html=1;" vertex="1" parent="1">
          <mxGeometry x="530" y="1010" width="120" height="80" as="geometry" />
        </mxCell>
        <mxCell id="qgOPRccc0iJquqA98cd3-24" value="" style="endArrow=none;html=1;rounded=0;exitX=0;exitY=0.5;exitDx=0;exitDy=0;" edge="1" parent="1" source="qgOPRccc0iJquqA98cd3-4">
          <mxGeometry width="50" height="50" relative="1" as="geometry">
            <mxPoint x="540" y="1170" as="sourcePoint" />
            <mxPoint x="380" y="1470" as="targetPoint" />
          </mxGeometry>
        </mxCell>
        <mxCell id="qgOPRccc0iJquqA98cd3-25" value="" style="endArrow=none;html=1;rounded=0;exitX=0;exitY=0.5;exitDx=0;exitDy=0;" edge="1" parent="1" source="qgOPRccc0iJquqA98cd3-6">
          <mxGeometry width="50" height="50" relative="1" as="geometry">
            <mxPoint x="540" y="1280" as="sourcePoint" />
            <mxPoint x="390" y="1470" as="targetPoint" />
          </mxGeometry>
        </mxCell>
        <mxCell id="qgOPRccc0iJquqA98cd3-26" value="" style="endArrow=none;html=1;rounded=0;" edge="1" parent="1">
          <mxGeometry width="50" height="50" relative="1" as="geometry">
            <mxPoint x="530" y="1503" as="sourcePoint" />
            <mxPoint x="390" y="1480" as="targetPoint" />
          </mxGeometry>
        </mxCell>
        <mxCell id="qgOPRccc0iJquqA98cd3-27" value="" style="endArrow=none;html=1;rounded=0;exitX=-0.02;exitY=0.359;exitDx=0;exitDy=0;exitPerimeter=0;" edge="1" parent="1" source="qgOPRccc0iJquqA98cd3-7">
          <mxGeometry width="50" height="50" relative="1" as="geometry">
            <mxPoint x="540" y="1513" as="sourcePoint" />
            <mxPoint x="390" y="1500" as="targetPoint" />
          </mxGeometry>
        </mxCell>
        <mxCell id="qgOPRccc0iJquqA98cd3-28" value="" style="endArrow=none;html=1;rounded=0;exitX=0.007;exitY=0.328;exitDx=0;exitDy=0;exitPerimeter=0;" edge="1" parent="1" source="qgOPRccc0iJquqA98cd3-8">
          <mxGeometry width="50" height="50" relative="1" as="geometry">
            <mxPoint x="538" y="1629" as="sourcePoint" />
            <mxPoint x="390" y="1530" as="targetPoint" />
          </mxGeometry>
        </mxCell>
        <mxCell id="qgOPRccc0iJquqA98cd3-29" value="Подготовка и отправка сырья и комплектующих для поставки." style="ellipse;whiteSpace=wrap;html=1;" vertex="1" parent="1">
          <mxGeometry x="715" y="960" width="120" height="80" as="geometry" />
        </mxCell>
        <mxCell id="qgOPRccc0iJquqA98cd3-30" value="Отслеживание статуса поставок." style="ellipse;whiteSpace=wrap;html=1;" vertex="1" parent="1">
          <mxGeometry x="715" y="850" width="120" height="80" as="geometry" />
        </mxCell>
        <mxCell id="qgOPRccc0iJquqA98cd3-31" value="Взаимодействие с представителями компании для уточнения деталей поставок." style="ellipse;whiteSpace=wrap;html=1;" vertex="1" parent="1">
          <mxGeometry x="515" y="890" width="150" height="80" as="geometry" />
        </mxCell>
        <mxCell id="qgOPRccc0iJquqA98cd3-32" value="Получение оплаты за поставленное сырье и комплектующие." style="ellipse;whiteSpace=wrap;html=1;" vertex="1" parent="1">
          <mxGeometry x="515" y="780" width="150" height="80" as="geometry" />
        </mxCell>
        <mxCell id="qgOPRccc0iJquqA98cd3-33" value="" style="endArrow=none;html=1;rounded=0;entryX=0;entryY=0.5;entryDx=0;entryDy=0;" edge="1" parent="1" target="qgOPRccc0iJquqA98cd3-31">
          <mxGeometry width="50" height="50" relative="1" as="geometry">
            <mxPoint x="390" y="990" as="sourcePoint" />
            <mxPoint x="545" y="1154" as="targetPoint" />
          </mxGeometry>
        </mxCell>
        <mxCell id="qgOPRccc0iJquqA98cd3-34" value="" style="endArrow=none;html=1;rounded=0;entryX=0;entryY=0.5;entryDx=0;entryDy=0;" edge="1" parent="1" target="qgOPRccc0iJquqA98cd3-32">
          <mxGeometry width="50" height="50" relative="1" as="geometry">
            <mxPoint x="390" y="960" as="sourcePoint" />
            <mxPoint x="525" y="940" as="targetPoint" />
          </mxGeometry>
        </mxCell>
        <mxCell id="qgOPRccc0iJquqA98cd3-35" value="" style="endArrow=none;html=1;rounded=0;entryX=-0.006;entryY=0.425;entryDx=0;entryDy=0;entryPerimeter=0;" edge="1" parent="1" target="qgOPRccc0iJquqA98cd3-23">
          <mxGeometry width="50" height="50" relative="1" as="geometry">
            <mxPoint x="390" y="1000" as="sourcePoint" />
            <mxPoint x="525" y="940" as="targetPoint" />
          </mxGeometry>
        </mxCell>
        <mxCell id="qgOPRccc0iJquqA98cd3-36" value="Управление заказами" style="ellipse;whiteSpace=wrap;html=1;" vertex="1" parent="1">
          <mxGeometry x="530" y="1910" width="120" height="80" as="geometry" />
        </mxCell>
        <mxCell id="qgOPRccc0iJquqA98cd3-37" value="Создание новых заказов" style="ellipse;whiteSpace=wrap;html=1;" vertex="1" parent="1">
          <mxGeometry x="720" y="1860" width="120" height="80" as="geometry" />
        </mxCell>
        <mxCell id="qgOPRccc0iJquqA98cd3-38" value="Отслеживание статуса выполнения заказов.ами" style="ellipse;whiteSpace=wrap;html=1;" vertex="1" parent="1">
          <mxGeometry x="720" y="1950" width="120" height="80" as="geometry" />
        </mxCell>
        <mxCell id="qgOPRccc0iJquqA98cd3-39" value="Внесение изменений в существующие заказы." style="ellipse;whiteSpace=wrap;html=1;" vertex="1" parent="1">
          <mxGeometry x="710" y="2040" width="140" height="80" as="geometry" />
        </mxCell>
        <mxCell id="qgOPRccc0iJquqA98cd3-40" value="Коммуникация" style="ellipse;whiteSpace=wrap;html=1;" vertex="1" parent="1">
          <mxGeometry x="530" y="2100" width="120" height="80" as="geometry" />
        </mxCell>
        <mxCell id="qgOPRccc0iJquqA98cd3-41" value="" style="endArrow=none;html=1;rounded=0;exitX=0;exitY=0.5;exitDx=0;exitDy=0;" edge="1" parent="1" source="qgOPRccc0iJquqA98cd3-36">
          <mxGeometry width="50" height="50" relative="1" as="geometry">
            <mxPoint x="543" y="1873" as="sourcePoint" />
            <mxPoint x="390" y="1980" as="targetPoint" />
          </mxGeometry>
        </mxCell>
        <mxCell id="qgOPRccc0iJquqA98cd3-42" value="" style="endArrow=none;html=1;rounded=0;exitX=0.092;exitY=0.255;exitDx=0;exitDy=0;exitPerimeter=0;" edge="1" parent="1" source="qgOPRccc0iJquqA98cd3-40">
          <mxGeometry width="50" height="50" relative="1" as="geometry">
            <mxPoint x="540" y="1960" as="sourcePoint" />
            <mxPoint x="390" y="2000" as="targetPoint" />
          </mxGeometry>
        </mxCell>
        <mxCell id="qgOPRccc0iJquqA98cd3-43" value="Общение с менеджерами по продажам компании для уточнения деталей заказов." style="ellipse;whiteSpace=wrap;html=1;" vertex="1" parent="1">
          <mxGeometry x="920" y="2100" width="140" height="80" as="geometry" />
        </mxCell>
        <mxCell id="qgOPRccc0iJquqA98cd3-44" value="Получение информации о готовности и доставке продукции." style="ellipse;whiteSpace=wrap;html=1;" vertex="1" parent="1">
          <mxGeometry x="925" y="2210" width="130" height="80" as="geometry" />
        </mxCell>
        <mxCell id="qgOPRccc0iJquqA98cd3-45" value="Оплата за оформленные заказы." style="ellipse;whiteSpace=wrap;html=1;" vertex="1" parent="1">
          <mxGeometry x="530" y="2210" width="120" height="80" as="geometry" />
        </mxCell>
        <mxCell id="qgOPRccc0iJquqA98cd3-46" value="" style="endArrow=none;html=1;rounded=0;exitX=0.011;exitY=0.287;exitDx=0;exitDy=0;exitPerimeter=0;" edge="1" parent="1" source="qgOPRccc0iJquqA98cd3-45">
          <mxGeometry width="50" height="50" relative="1" as="geometry">
            <mxPoint x="551" y="2130" as="sourcePoint" />
            <mxPoint x="390" y="2030" as="targetPoint" />
          </mxGeometry>
        </mxCell>
        <mxCell id="qgOPRccc0iJquqA98cd3-47" value="&lt;font style=&quot;font-size: 45px;&quot;&gt;Процесс производства окон&lt;/font&gt;" style="text;html=1;align=center;verticalAlign=middle;resizable=0;points=[];autosize=1;strokeColor=#d79b00;fillColor=#ffe6cc;" vertex="1" parent="1">
          <mxGeometry x="485" y="630" width="610" height="70" as="geometry" />
        </mxCell>
        <mxCell id="qgOPRccc0iJquqA98cd3-48" value="" style="endArrow=classic;html=1;rounded=0;dashed=1;dashPattern=12 12;exitX=1;exitY=0.5;exitDx=0;exitDy=0;entryX=0.004;entryY=0.548;entryDx=0;entryDy=0;entryPerimeter=0;" edge="1" parent="1" source="qgOPRccc0iJquqA98cd3-23" target="qgOPRccc0iJquqA98cd3-30">
          <mxGeometry relative="1" as="geometry">
            <mxPoint x="690" y="950" as="sourcePoint" />
            <mxPoint x="850" y="950" as="targetPoint" />
          </mxGeometry>
        </mxCell>
        <mxCell id="qgOPRccc0iJquqA98cd3-49" value="Include" style="edgeLabel;resizable=0;html=1;;align=center;verticalAlign=middle;" connectable="0" vertex="1" parent="qgOPRccc0iJquqA98cd3-48">
          <mxGeometry relative="1" as="geometry" />
        </mxCell>
        <mxCell id="qgOPRccc0iJquqA98cd3-50" value="" style="endArrow=classic;html=1;rounded=0;dashed=1;dashPattern=12 12;exitX=1;exitY=0.5;exitDx=0;exitDy=0;entryX=0.019;entryY=0.492;entryDx=0;entryDy=0;entryPerimeter=0;" edge="1" parent="1" source="qgOPRccc0iJquqA98cd3-23" target="qgOPRccc0iJquqA98cd3-29">
          <mxGeometry relative="1" as="geometry">
            <mxPoint x="660" y="1060" as="sourcePoint" />
            <mxPoint x="725" y="904" as="targetPoint" />
          </mxGeometry>
        </mxCell>
        <mxCell id="qgOPRccc0iJquqA98cd3-51" value="Include" style="edgeLabel;resizable=0;html=1;;align=center;verticalAlign=middle;" connectable="0" vertex="1" parent="qgOPRccc0iJquqA98cd3-50">
          <mxGeometry relative="1" as="geometry" />
        </mxCell>
        <mxCell id="qgOPRccc0iJquqA98cd3-52" value="" style="endArrow=classic;html=1;rounded=0;dashed=1;dashPattern=12 12;exitX=1;exitY=0.5;exitDx=0;exitDy=0;entryX=-0.002;entryY=0.573;entryDx=0;entryDy=0;entryPerimeter=0;" edge="1" parent="1" source="qgOPRccc0iJquqA98cd3-4" target="qgOPRccc0iJquqA98cd3-15">
          <mxGeometry relative="1" as="geometry">
            <mxPoint x="670" y="1070" as="sourcePoint" />
            <mxPoint x="735" y="914" as="targetPoint" />
          </mxGeometry>
        </mxCell>
        <mxCell id="qgOPRccc0iJquqA98cd3-53" value="Include" style="edgeLabel;resizable=0;html=1;;align=center;verticalAlign=middle;" connectable="0" vertex="1" parent="qgOPRccc0iJquqA98cd3-52">
          <mxGeometry relative="1" as="geometry" />
        </mxCell>
        <mxCell id="qgOPRccc0iJquqA98cd3-54" value="" style="endArrow=classic;html=1;rounded=0;dashed=1;dashPattern=12 12;exitX=1;exitY=0.5;exitDx=0;exitDy=0;entryX=0;entryY=0.5;entryDx=0;entryDy=0;" edge="1" parent="1" source="qgOPRccc0iJquqA98cd3-4" target="qgOPRccc0iJquqA98cd3-16">
          <mxGeometry relative="1" as="geometry">
            <mxPoint x="660" y="1280" as="sourcePoint" />
            <mxPoint x="860" y="1096" as="targetPoint" />
          </mxGeometry>
        </mxCell>
        <mxCell id="qgOPRccc0iJquqA98cd3-55" value="Include" style="edgeLabel;resizable=0;html=1;;align=center;verticalAlign=middle;" connectable="0" vertex="1" parent="qgOPRccc0iJquqA98cd3-54">
          <mxGeometry relative="1" as="geometry" />
        </mxCell>
        <mxCell id="qgOPRccc0iJquqA98cd3-56" value="" style="endArrow=classic;html=1;rounded=0;dashed=1;dashPattern=12 12;exitX=1;exitY=0.5;exitDx=0;exitDy=0;entryX=0;entryY=0.5;entryDx=0;entryDy=0;" edge="1" parent="1" source="qgOPRccc0iJquqA98cd3-4" target="qgOPRccc0iJquqA98cd3-17">
          <mxGeometry relative="1" as="geometry">
            <mxPoint x="660" y="1280" as="sourcePoint" />
            <mxPoint x="860" y="1200" as="targetPoint" />
          </mxGeometry>
        </mxCell>
        <mxCell id="qgOPRccc0iJquqA98cd3-57" value="Include" style="edgeLabel;resizable=0;html=1;;align=center;verticalAlign=middle;" connectable="0" vertex="1" parent="qgOPRccc0iJquqA98cd3-56">
          <mxGeometry relative="1" as="geometry" />
        </mxCell>
        <mxCell id="qgOPRccc0iJquqA98cd3-58" value="" style="endArrow=classic;html=1;rounded=0;dashed=1;dashPattern=12 12;exitX=1;exitY=0.5;exitDx=0;exitDy=0;entryX=0.009;entryY=0.436;entryDx=0;entryDy=0;entryPerimeter=0;" edge="1" parent="1" source="qgOPRccc0iJquqA98cd3-6" target="qgOPRccc0iJquqA98cd3-18">
          <mxGeometry relative="1" as="geometry">
            <mxPoint x="660" y="1280" as="sourcePoint" />
            <mxPoint x="860" y="1310" as="targetPoint" />
          </mxGeometry>
        </mxCell>
        <mxCell id="qgOPRccc0iJquqA98cd3-59" value="Include" style="edgeLabel;resizable=0;html=1;;align=center;verticalAlign=middle;" connectable="0" vertex="1" parent="qgOPRccc0iJquqA98cd3-58">
          <mxGeometry relative="1" as="geometry" />
        </mxCell>
        <mxCell id="qgOPRccc0iJquqA98cd3-60" value="" style="endArrow=classic;html=1;rounded=0;dashed=1;dashPattern=12 12;exitX=1;exitY=0.5;exitDx=0;exitDy=0;entryX=0;entryY=0.5;entryDx=0;entryDy=0;" edge="1" parent="1" source="qgOPRccc0iJquqA98cd3-6" target="qgOPRccc0iJquqA98cd3-19">
          <mxGeometry relative="1" as="geometry">
            <mxPoint x="660" y="1400" as="sourcePoint" />
            <mxPoint x="861" y="1415" as="targetPoint" />
          </mxGeometry>
        </mxCell>
        <mxCell id="qgOPRccc0iJquqA98cd3-61" value="Include" style="edgeLabel;resizable=0;html=1;;align=center;verticalAlign=middle;" connectable="0" vertex="1" parent="qgOPRccc0iJquqA98cd3-60">
          <mxGeometry relative="1" as="geometry" />
        </mxCell>
        <mxCell id="qgOPRccc0iJquqA98cd3-62" value="" style="endArrow=classic;html=1;rounded=0;dashed=1;dashPattern=12 12;exitX=1.003;exitY=0.449;exitDx=0;exitDy=0;entryX=-0.021;entryY=0.44;entryDx=0;entryDy=0;entryPerimeter=0;exitPerimeter=0;" edge="1" parent="1" source="qgOPRccc0iJquqA98cd3-5" target="qgOPRccc0iJquqA98cd3-20">
          <mxGeometry relative="1" as="geometry">
            <mxPoint x="670" y="1410" as="sourcePoint" />
            <mxPoint x="871" y="1425" as="targetPoint" />
          </mxGeometry>
        </mxCell>
        <mxCell id="qgOPRccc0iJquqA98cd3-63" value="Include" style="edgeLabel;resizable=0;html=1;;align=center;verticalAlign=middle;" connectable="0" vertex="1" parent="qgOPRccc0iJquqA98cd3-62">
          <mxGeometry relative="1" as="geometry" />
        </mxCell>
        <mxCell id="qgOPRccc0iJquqA98cd3-64" value="" style="endArrow=classic;html=1;rounded=0;dashed=1;dashPattern=12 12;exitX=0.988;exitY=0.449;exitDx=0;exitDy=0;entryX=-0.025;entryY=0.459;entryDx=0;entryDy=0;entryPerimeter=0;exitPerimeter=0;" edge="1" parent="1" source="qgOPRccc0iJquqA98cd3-5" target="qgOPRccc0iJquqA98cd3-21">
          <mxGeometry relative="1" as="geometry">
            <mxPoint x="660" y="1516" as="sourcePoint" />
            <mxPoint x="842" y="1625" as="targetPoint" />
            <Array as="points">
              <mxPoint x="649" y="1506" />
            </Array>
          </mxGeometry>
        </mxCell>
        <mxCell id="qgOPRccc0iJquqA98cd3-65" value="Include" style="edgeLabel;resizable=0;html=1;;align=center;verticalAlign=middle;" connectable="0" vertex="1" parent="qgOPRccc0iJquqA98cd3-64">
          <mxGeometry relative="1" as="geometry" />
        </mxCell>
        <mxCell id="qgOPRccc0iJquqA98cd3-66" value="" style="endArrow=classic;html=1;rounded=0;dashed=1;dashPattern=12 12;entryX=0;entryY=0.5;entryDx=0;entryDy=0;" edge="1" parent="1" target="qgOPRccc0iJquqA98cd3-22">
          <mxGeometry relative="1" as="geometry">
            <mxPoint x="650" y="1510" as="sourcePoint" />
            <mxPoint x="852" y="1635" as="targetPoint" />
          </mxGeometry>
        </mxCell>
        <mxCell id="qgOPRccc0iJquqA98cd3-67" value="Include" style="edgeLabel;resizable=0;html=1;;align=center;verticalAlign=middle;" connectable="0" vertex="1" parent="qgOPRccc0iJquqA98cd3-66">
          <mxGeometry relative="1" as="geometry" />
        </mxCell>
        <mxCell id="qgOPRccc0iJquqA98cd3-68" value="" style="endArrow=classic;html=1;rounded=0;dashed=1;dashPattern=12 12;entryX=0.003;entryY=0.428;entryDx=0;entryDy=0;exitX=1;exitY=0.5;exitDx=0;exitDy=0;entryPerimeter=0;" edge="1" parent="1" source="qgOPRccc0iJquqA98cd3-36" target="qgOPRccc0iJquqA98cd3-37">
          <mxGeometry relative="1" as="geometry">
            <mxPoint x="680" y="1700" as="sourcePoint" />
            <mxPoint x="880" y="2020" as="targetPoint" />
          </mxGeometry>
        </mxCell>
        <mxCell id="qgOPRccc0iJquqA98cd3-69" value="Include" style="edgeLabel;resizable=0;html=1;;align=center;verticalAlign=middle;" connectable="0" vertex="1" parent="qgOPRccc0iJquqA98cd3-68">
          <mxGeometry relative="1" as="geometry" />
        </mxCell>
        <mxCell id="qgOPRccc0iJquqA98cd3-70" value="" style="endArrow=classic;html=1;rounded=0;dashed=1;dashPattern=12 12;entryX=-0.001;entryY=0.421;entryDx=0;entryDy=0;exitX=1;exitY=0.5;exitDx=0;exitDy=0;entryPerimeter=0;" edge="1" parent="1" source="qgOPRccc0iJquqA98cd3-36" target="qgOPRccc0iJquqA98cd3-38">
          <mxGeometry relative="1" as="geometry">
            <mxPoint x="660" y="1960" as="sourcePoint" />
            <mxPoint x="730" y="1904" as="targetPoint" />
          </mxGeometry>
        </mxCell>
        <mxCell id="qgOPRccc0iJquqA98cd3-71" value="Include" style="edgeLabel;resizable=0;html=1;;align=center;verticalAlign=middle;" connectable="0" vertex="1" parent="qgOPRccc0iJquqA98cd3-70">
          <mxGeometry relative="1" as="geometry" />
        </mxCell>
        <mxCell id="qgOPRccc0iJquqA98cd3-72" value="" style="endArrow=classic;html=1;rounded=0;dashed=1;dashPattern=12 12;entryX=0;entryY=0.375;entryDx=0;entryDy=0;exitX=1;exitY=0.5;exitDx=0;exitDy=0;entryPerimeter=0;" edge="1" parent="1" source="qgOPRccc0iJquqA98cd3-36" target="qgOPRccc0iJquqA98cd3-39">
          <mxGeometry relative="1" as="geometry">
            <mxPoint x="670" y="1970" as="sourcePoint" />
            <mxPoint x="740" y="1914" as="targetPoint" />
          </mxGeometry>
        </mxCell>
        <mxCell id="qgOPRccc0iJquqA98cd3-73" value="Include" style="edgeLabel;resizable=0;html=1;;align=center;verticalAlign=middle;" connectable="0" vertex="1" parent="qgOPRccc0iJquqA98cd3-72">
          <mxGeometry relative="1" as="geometry" />
        </mxCell>
        <mxCell id="qgOPRccc0iJquqA98cd3-74" value="" style="endArrow=classic;html=1;rounded=0;dashed=1;dashPattern=12 12;entryX=0;entryY=0.5;entryDx=0;entryDy=0;exitX=1;exitY=0.5;exitDx=0;exitDy=0;" edge="1" parent="1" source="qgOPRccc0iJquqA98cd3-40" target="qgOPRccc0iJquqA98cd3-43">
          <mxGeometry relative="1" as="geometry">
            <mxPoint x="680" y="1980" as="sourcePoint" />
            <mxPoint x="750" y="1924" as="targetPoint" />
          </mxGeometry>
        </mxCell>
        <mxCell id="qgOPRccc0iJquqA98cd3-75" value="Include" style="edgeLabel;resizable=0;html=1;;align=center;verticalAlign=middle;" connectable="0" vertex="1" parent="qgOPRccc0iJquqA98cd3-74">
          <mxGeometry relative="1" as="geometry" />
        </mxCell>
        <mxCell id="qgOPRccc0iJquqA98cd3-76" value="" style="endArrow=classic;html=1;rounded=0;dashed=1;dashPattern=12 12;entryX=0;entryY=0.5;entryDx=0;entryDy=0;exitX=1;exitY=0.5;exitDx=0;exitDy=0;" edge="1" parent="1" source="qgOPRccc0iJquqA98cd3-40" target="qgOPRccc0iJquqA98cd3-44">
          <mxGeometry relative="1" as="geometry">
            <mxPoint x="660" y="2150" as="sourcePoint" />
            <mxPoint x="930" y="2150" as="targetPoint" />
          </mxGeometry>
        </mxCell>
        <mxCell id="qgOPRccc0iJquqA98cd3-77" value="Include" style="edgeLabel;resizable=0;html=1;;align=center;verticalAlign=middle;" connectable="0" vertex="1" parent="qgOPRccc0iJquqA98cd3-76">
          <mxGeometry relative="1" as="geometry" />
        </mxCell>
        <mxCell id="qgOPRccc0iJquqA98cd3-78" value="" style="rounded=1;whiteSpace=wrap;html=1;fillColor=#f5f5f5;opacity=25;fontColor=#333333;strokeColor=#330000;" vertex="1" parent="1">
          <mxGeometry x="490" y="700" width="600" height="1640" as="geometry" />
        </mxCell>
        <mxCell id="qgOPRccc0iJquqA98cd3-79" value="Интерфейс приложения" style="shape=umlBoundary;whiteSpace=wrap;html=1;" vertex="1" parent="1">
          <mxGeometry x="1928" y="715" width="90" height="70" as="geometry" />
        </mxCell>
        <mxCell id="qgOPRccc0iJquqA98cd3-80" value="Клиент" style="shape=umlActor;verticalLabelPosition=bottom;verticalAlign=top;html=1;" vertex="1" parent="1">
          <mxGeometry x="1780" y="715" width="30" height="60" as="geometry" />
        </mxCell>
        <mxCell id="qgOPRccc0iJquqA98cd3-81" value="" style="endArrow=none;dashed=1;html=1;rounded=0;edgeStyle=orthogonalEdgeStyle;exitX=0.449;exitY=0.776;exitDx=0;exitDy=0;exitPerimeter=0;" edge="1" parent="1" source="qgOPRccc0iJquqA98cd3-80">
          <mxGeometry width="50" height="50" relative="1" as="geometry">
            <mxPoint x="2000" y="870" as="sourcePoint" />
            <mxPoint x="1793" y="1180" as="targetPoint" />
            <Array as="points">
              <mxPoint x="1793" y="820" />
            </Array>
          </mxGeometry>
        </mxCell>
        <mxCell id="qgOPRccc0iJquqA98cd3-82" value="Система управления&lt;div&gt;заказами&lt;/div&gt;" style="ellipse;shape=umlControl;whiteSpace=wrap;html=1;" vertex="1" parent="1">
          <mxGeometry x="2100" y="705" width="70" height="80" as="geometry" />
        </mxCell>
        <mxCell id="qgOPRccc0iJquqA98cd3-83" value="" style="endArrow=none;dashed=1;html=1;rounded=0;edgeStyle=orthogonalEdgeStyle;exitX=0.449;exitY=0.776;exitDx=0;exitDy=0;exitPerimeter=0;" edge="1" parent="1" source="qgOPRccc0iJquqA98cd3-115">
          <mxGeometry width="50" height="50" relative="1" as="geometry">
            <mxPoint x="2134.66" y="785" as="sourcePoint" />
            <mxPoint x="2135" y="1180" as="targetPoint" />
            <Array as="points">
              <mxPoint x="2135" y="843" />
              <mxPoint x="2135" y="1180" />
            </Array>
          </mxGeometry>
        </mxCell>
        <mxCell id="qgOPRccc0iJquqA98cd3-84" value="Менеджер" style="ellipse;shape=umlEntity;whiteSpace=wrap;html=1;" vertex="1" parent="1">
          <mxGeometry x="2270" y="715" width="70" height="70" as="geometry" />
        </mxCell>
        <mxCell id="qgOPRccc0iJquqA98cd3-85" value="" style="endArrow=none;dashed=1;html=1;rounded=0;edgeStyle=orthogonalEdgeStyle;exitX=0.449;exitY=0.776;exitDx=0;exitDy=0;exitPerimeter=0;" edge="1" parent="1" source="qgOPRccc0iJquqA98cd3-98">
          <mxGeometry width="50" height="50" relative="1" as="geometry">
            <mxPoint x="2304.71" y="785" as="sourcePoint" />
            <mxPoint x="2304.71" y="1180" as="targetPoint" />
            <Array as="points">
              <mxPoint x="2305.05" y="843" />
              <mxPoint x="2305.05" y="1180" />
            </Array>
          </mxGeometry>
        </mxCell>
        <mxCell id="qgOPRccc0iJquqA98cd3-86" value="Поставщик сырья" style="ellipse;shape=umlEntity;whiteSpace=wrap;html=1;" vertex="1" parent="1">
          <mxGeometry x="2420" y="715" width="70" height="70" as="geometry" />
        </mxCell>
        <mxCell id="qgOPRccc0iJquqA98cd3-87" value="" style="endArrow=none;dashed=1;html=1;rounded=0;edgeStyle=orthogonalEdgeStyle;exitX=0.449;exitY=0.776;exitDx=0;exitDy=0;exitPerimeter=0;" edge="1" parent="1">
          <mxGeometry width="50" height="50" relative="1" as="geometry">
            <mxPoint x="2454.66" y="785" as="sourcePoint" />
            <mxPoint x="2454.66" y="1180" as="targetPoint" />
            <Array as="points">
              <mxPoint x="2455" y="843" />
              <mxPoint x="2455" y="1180" />
            </Array>
          </mxGeometry>
        </mxCell>
        <mxCell id="qgOPRccc0iJquqA98cd3-88" value="Производственный цех" style="ellipse;shape=umlEntity;whiteSpace=wrap;html=1;" vertex="1" parent="1">
          <mxGeometry x="2560" y="715" width="70" height="70" as="geometry" />
        </mxCell>
        <mxCell id="qgOPRccc0iJquqA98cd3-89" value="" style="endArrow=none;dashed=1;html=1;rounded=0;edgeStyle=orthogonalEdgeStyle;exitX=0.449;exitY=0.776;exitDx=0;exitDy=0;exitPerimeter=0;" edge="1" parent="1">
          <mxGeometry width="50" height="50" relative="1" as="geometry">
            <mxPoint x="2594.76" y="785" as="sourcePoint" />
            <mxPoint x="2594.76" y="1180" as="targetPoint" />
            <Array as="points">
              <mxPoint x="2595.1000000000004" y="843" />
              <mxPoint x="2595.1000000000004" y="1180" />
            </Array>
          </mxGeometry>
        </mxCell>
        <mxCell id="qgOPRccc0iJquqA98cd3-90" style="edgeStyle=orthogonalEdgeStyle;rounded=0;orthogonalLoop=1;jettySize=auto;html=1;exitX=1;exitY=0;exitDx=0;exitDy=0;entryX=0;entryY=0;entryDx=0;entryDy=0;" edge="1" parent="1" source="qgOPRccc0iJquqA98cd3-91" target="qgOPRccc0iJquqA98cd3-121">
          <mxGeometry relative="1" as="geometry">
            <Array as="points">
              <mxPoint x="1890" y="830" />
              <mxPoint x="1890" y="830" />
            </Array>
          </mxGeometry>
        </mxCell>
        <mxCell id="qgOPRccc0iJquqA98cd3-91" value="" style="rounded=0;whiteSpace=wrap;html=1;" vertex="1" parent="1">
          <mxGeometry x="1790" y="830" width="10" height="100" as="geometry" />
        </mxCell>
        <mxCell id="qgOPRccc0iJquqA98cd3-92" value="&lt;font style=&quot;font-size: 8px;&quot;&gt;&lt;font style=&quot;&quot;&gt;1: Запрос на покупк&lt;/font&gt;у окна&lt;/font&gt;" style="text;html=1;align=center;verticalAlign=middle;resizable=0;points=[];autosize=1;strokeColor=none;fillColor=none;" vertex="1" parent="1">
          <mxGeometry x="1820" y="805" width="120" height="30" as="geometry" />
        </mxCell>
        <mxCell id="qgOPRccc0iJquqA98cd3-93" style="edgeStyle=orthogonalEdgeStyle;rounded=0;orthogonalLoop=1;jettySize=auto;html=1;exitX=1;exitY=0;exitDx=0;exitDy=0;entryX=0;entryY=0;entryDx=0;entryDy=0;" edge="1" parent="1" source="qgOPRccc0iJquqA98cd3-121" target="qgOPRccc0iJquqA98cd3-95">
          <mxGeometry relative="1" as="geometry">
            <Array as="points">
              <mxPoint x="1980" y="840" />
              <mxPoint x="2130" y="840" />
            </Array>
          </mxGeometry>
        </mxCell>
        <mxCell id="qgOPRccc0iJquqA98cd3-94" style="edgeStyle=orthogonalEdgeStyle;rounded=0;orthogonalLoop=1;jettySize=auto;html=1;exitX=1;exitY=0;exitDx=0;exitDy=0;entryX=0;entryY=0;entryDx=0;entryDy=0;" edge="1" parent="1">
          <mxGeometry relative="1" as="geometry">
            <mxPoint x="2140" y="850" as="sourcePoint" />
            <mxPoint x="2300" y="850" as="targetPoint" />
            <Array as="points">
              <mxPoint x="2220" y="850" />
              <mxPoint x="2220" y="850" />
            </Array>
          </mxGeometry>
        </mxCell>
        <mxCell id="qgOPRccc0iJquqA98cd3-95" value="" style="rounded=0;whiteSpace=wrap;html=1;" vertex="1" parent="1">
          <mxGeometry x="2130" y="830" width="10" height="100" as="geometry" />
        </mxCell>
        <mxCell id="qgOPRccc0iJquqA98cd3-96" value="&lt;font style=&quot;&quot;&gt;&lt;font style=&quot;font-size: 8px;&quot;&gt;2: Запрос на составлении заказа&lt;/font&gt;&lt;/font&gt;" style="text;html=1;align=center;verticalAlign=middle;resizable=0;points=[];autosize=1;strokeColor=none;fillColor=none;" vertex="1" parent="1">
          <mxGeometry x="1970" y="810" width="150" height="30" as="geometry" />
        </mxCell>
        <mxCell id="qgOPRccc0iJquqA98cd3-97" value="" style="endArrow=none;dashed=1;html=1;rounded=0;edgeStyle=orthogonalEdgeStyle;exitX=0.449;exitY=0.776;exitDx=0;exitDy=0;exitPerimeter=0;" edge="1" parent="1" target="qgOPRccc0iJquqA98cd3-98">
          <mxGeometry width="50" height="50" relative="1" as="geometry">
            <mxPoint x="2304.71" y="785" as="sourcePoint" />
            <mxPoint x="2304.71" y="1180" as="targetPoint" />
            <Array as="points" />
          </mxGeometry>
        </mxCell>
        <mxCell id="qgOPRccc0iJquqA98cd3-98" value="" style="rounded=0;whiteSpace=wrap;html=1;" vertex="1" parent="1">
          <mxGeometry x="2300" y="830" width="10" height="260" as="geometry" />
        </mxCell>
        <mxCell id="qgOPRccc0iJquqA98cd3-99" value="&lt;font style=&quot;font-size: 8px;&quot;&gt;3: Запрос на начало создания заказа&lt;/font&gt;" style="text;html=1;align=center;verticalAlign=middle;resizable=0;points=[];autosize=1;strokeColor=none;fillColor=none;" vertex="1" parent="1">
          <mxGeometry x="2140" y="820" width="160" height="30" as="geometry" />
        </mxCell>
        <mxCell id="qgOPRccc0iJquqA98cd3-100" value="" style="rounded=0;whiteSpace=wrap;html=1;" vertex="1" parent="1">
          <mxGeometry x="2450" y="830" width="10" height="140" as="geometry" />
        </mxCell>
        <mxCell id="qgOPRccc0iJquqA98cd3-101" value="&lt;font style=&quot;font-size: 8px;&quot;&gt;5: Договор о поставке сырья&lt;/font&gt;" style="text;html=1;align=center;verticalAlign=middle;resizable=0;points=[];autosize=1;strokeColor=none;fillColor=none;" vertex="1" parent="1">
          <mxGeometry x="2320" y="900" width="130" height="30" as="geometry" />
        </mxCell>
        <mxCell id="qgOPRccc0iJquqA98cd3-102" style="edgeStyle=orthogonalEdgeStyle;rounded=0;orthogonalLoop=1;jettySize=auto;html=1;exitX=0;exitY=1;exitDx=0;exitDy=0;dashed=1;dashPattern=8 8;" edge="1" parent="1" source="qgOPRccc0iJquqA98cd3-103">
          <mxGeometry relative="1" as="geometry">
            <mxPoint x="2310" y="1030" as="targetPoint" />
            <Array as="points">
              <mxPoint x="2450" y="1030" />
              <mxPoint x="2450" y="1030" />
            </Array>
          </mxGeometry>
        </mxCell>
        <mxCell id="qgOPRccc0iJquqA98cd3-103" value="" style="rounded=0;whiteSpace=wrap;html=1;" vertex="1" parent="1">
          <mxGeometry x="2590" y="830" width="10" height="200" as="geometry" />
        </mxCell>
        <mxCell id="qgOPRccc0iJquqA98cd3-104" style="edgeStyle=orthogonalEdgeStyle;rounded=0;orthogonalLoop=1;jettySize=auto;html=1;exitX=0;exitY=0.5;exitDx=0;exitDy=0;entryX=1.272;entryY=0.721;entryDx=0;entryDy=0;entryPerimeter=0;" edge="1" parent="1" source="qgOPRccc0iJquqA98cd3-103" target="qgOPRccc0iJquqA98cd3-100">
          <mxGeometry relative="1" as="geometry" />
        </mxCell>
        <mxCell id="qgOPRccc0iJquqA98cd3-105" value="&lt;font style=&quot;font-size: 8px;&quot;&gt;6: Запрос на сырьё&lt;/font&gt;" style="text;html=1;align=center;verticalAlign=middle;resizable=0;points=[];autosize=1;strokeColor=none;fillColor=none;" vertex="1" parent="1">
          <mxGeometry x="2470" y="900" width="100" height="30" as="geometry" />
        </mxCell>
        <mxCell id="qgOPRccc0iJquqA98cd3-106" style="edgeStyle=orthogonalEdgeStyle;rounded=0;orthogonalLoop=1;jettySize=auto;html=1;exitX=0.997;exitY=0.832;exitDx=0;exitDy=0;exitPerimeter=0;dashed=1;" edge="1" parent="1">
          <mxGeometry relative="1" as="geometry">
            <mxPoint x="2458.1099999999997" y="946.48" as="sourcePoint" />
            <mxPoint x="2590" y="940" as="targetPoint" />
            <Array as="points">
              <mxPoint x="2458" y="940" />
              <mxPoint x="2590" y="940" />
            </Array>
          </mxGeometry>
        </mxCell>
        <mxCell id="qgOPRccc0iJquqA98cd3-107" value="&lt;font style=&quot;font-size: 8px;&quot;&gt;7: Поставка сырья&lt;/font&gt;" style="text;html=1;align=center;verticalAlign=middle;resizable=0;points=[];autosize=1;strokeColor=none;fillColor=none;" vertex="1" parent="1">
          <mxGeometry x="2475" y="940" width="90" height="30" as="geometry" />
        </mxCell>
        <mxCell id="qgOPRccc0iJquqA98cd3-108" value="&lt;span style=&quot;font-size: 8px;&quot;&gt;8: Запрос на информацию о готовности окон&lt;/span&gt;" style="text;html=1;align=center;verticalAlign=middle;resizable=0;points=[];autosize=1;strokeColor=none;fillColor=none;" vertex="1" parent="1">
          <mxGeometry x="2310" y="975" width="190" height="30" as="geometry" />
        </mxCell>
        <mxCell id="qgOPRccc0iJquqA98cd3-109" style="edgeStyle=orthogonalEdgeStyle;rounded=0;orthogonalLoop=1;jettySize=auto;html=1;exitX=1.086;exitY=0.73;exitDx=0;exitDy=0;exitPerimeter=0;" edge="1" parent="1">
          <mxGeometry relative="1" as="geometry">
            <mxPoint x="2309.9999999999995" y="1001.8" as="sourcePoint" />
            <mxPoint x="2590" y="1002" as="targetPoint" />
            <Array as="points">
              <mxPoint x="2310" y="1003" />
              <mxPoint x="2352" y="1003" />
              <mxPoint x="2352" y="1002" />
              <mxPoint x="2585" y="1002" />
            </Array>
          </mxGeometry>
        </mxCell>
        <mxCell id="qgOPRccc0iJquqA98cd3-110" value="&lt;font style=&quot;font-size: 8px;&quot;&gt;4: Запрос на поставку сырья&lt;/font&gt;" style="text;html=1;align=center;verticalAlign=middle;resizable=0;points=[];autosize=1;strokeColor=none;fillColor=none;" vertex="1" parent="1">
          <mxGeometry x="2310" y="840" width="130" height="30" as="geometry" />
        </mxCell>
        <mxCell id="qgOPRccc0iJquqA98cd3-111" style="edgeStyle=orthogonalEdgeStyle;rounded=0;orthogonalLoop=1;jettySize=auto;html=1;entryX=-0.272;entryY=0.307;entryDx=0;entryDy=0;entryPerimeter=0;exitX=1.266;exitY=0.163;exitDx=0;exitDy=0;exitPerimeter=0;" edge="1" parent="1" source="qgOPRccc0iJquqA98cd3-98" target="qgOPRccc0iJquqA98cd3-100">
          <mxGeometry relative="1" as="geometry">
            <mxPoint x="2313" y="886" as="sourcePoint" />
            <mxPoint x="2310" y="871" as="targetPoint" />
            <Array as="points" />
          </mxGeometry>
        </mxCell>
        <mxCell id="qgOPRccc0iJquqA98cd3-112" value="&lt;font style=&quot;font-size: 8px;&quot;&gt;9: Информация о готовых окнах&lt;/font&gt;" style="text;html=1;align=center;verticalAlign=middle;resizable=0;points=[];autosize=1;strokeColor=none;fillColor=none;" vertex="1" parent="1">
          <mxGeometry x="2320" y="1030" width="140" height="30" as="geometry" />
        </mxCell>
        <mxCell id="qgOPRccc0iJquqA98cd3-113" style="edgeStyle=orthogonalEdgeStyle;rounded=0;orthogonalLoop=1;jettySize=auto;html=1;exitX=0;exitY=0.5;exitDx=0;exitDy=0;entryX=1.1;entryY=0.276;entryDx=0;entryDy=0;entryPerimeter=0;dashed=1;" edge="1" parent="1" source="qgOPRccc0iJquqA98cd3-100" target="qgOPRccc0iJquqA98cd3-98">
          <mxGeometry relative="1" as="geometry" />
        </mxCell>
        <mxCell id="qgOPRccc0iJquqA98cd3-114" value="" style="endArrow=none;dashed=1;html=1;rounded=0;edgeStyle=orthogonalEdgeStyle;exitX=0.449;exitY=0.776;exitDx=0;exitDy=0;exitPerimeter=0;" edge="1" parent="1" target="qgOPRccc0iJquqA98cd3-115">
          <mxGeometry width="50" height="50" relative="1" as="geometry">
            <mxPoint x="2134.66" y="785" as="sourcePoint" />
            <mxPoint x="2135" y="1180" as="targetPoint" />
            <Array as="points" />
          </mxGeometry>
        </mxCell>
        <mxCell id="qgOPRccc0iJquqA98cd3-115" value="" style="rounded=0;whiteSpace=wrap;html=1;" vertex="1" parent="1">
          <mxGeometry x="2130" y="1045" width="10" height="70" as="geometry" />
        </mxCell>
        <mxCell id="qgOPRccc0iJquqA98cd3-116" style="edgeStyle=orthogonalEdgeStyle;rounded=0;orthogonalLoop=1;jettySize=auto;html=1;exitX=0;exitY=1;exitDx=0;exitDy=0;entryX=0.886;entryY=0.688;entryDx=0;entryDy=0;entryPerimeter=0;dashed=1;" edge="1" parent="1" source="qgOPRccc0iJquqA98cd3-98" target="qgOPRccc0iJquqA98cd3-115">
          <mxGeometry relative="1" as="geometry">
            <Array as="points">
              <mxPoint x="2300" y="1093" />
            </Array>
          </mxGeometry>
        </mxCell>
        <mxCell id="qgOPRccc0iJquqA98cd3-117" value="&lt;font style=&quot;font-size: 8px;&quot;&gt;10: Информирование клиента&lt;/font&gt;&lt;div&gt;&lt;font style=&quot;font-size: 8px;&quot;&gt;о готовом заказе&lt;/font&gt;&lt;/div&gt;" style="text;html=1;align=center;verticalAlign=middle;resizable=0;points=[];autosize=1;strokeColor=none;fillColor=none;" vertex="1" parent="1">
          <mxGeometry x="2150" y="1050" width="140" height="40" as="geometry" />
        </mxCell>
        <mxCell id="qgOPRccc0iJquqA98cd3-118" value="" style="endArrow=none;dashed=1;html=1;rounded=0;edgeStyle=orthogonalEdgeStyle;exitX=0.449;exitY=0.776;exitDx=0;exitDy=0;exitPerimeter=0;" edge="1" parent="1" source="qgOPRccc0iJquqA98cd3-121" target="qgOPRccc0iJquqA98cd3-119">
          <mxGeometry width="50" height="50" relative="1" as="geometry">
            <mxPoint x="1978" y="785" as="sourcePoint" />
            <mxPoint x="1978" y="1183" as="targetPoint" />
            <Array as="points" />
          </mxGeometry>
        </mxCell>
        <mxCell id="qgOPRccc0iJquqA98cd3-119" value="" style="rounded=0;whiteSpace=wrap;html=1;" vertex="1" parent="1">
          <mxGeometry x="1970" y="1030" width="10" height="100" as="geometry" />
        </mxCell>
        <mxCell id="qgOPRccc0iJquqA98cd3-120" value="" style="endArrow=none;dashed=1;html=1;rounded=0;edgeStyle=orthogonalEdgeStyle;exitX=0.449;exitY=0.776;exitDx=0;exitDy=0;exitPerimeter=0;" edge="1" parent="1" target="qgOPRccc0iJquqA98cd3-121">
          <mxGeometry width="50" height="50" relative="1" as="geometry">
            <mxPoint x="1978" y="785" as="sourcePoint" />
            <mxPoint x="1975" y="1030" as="targetPoint" />
            <Array as="points" />
          </mxGeometry>
        </mxCell>
        <mxCell id="qgOPRccc0iJquqA98cd3-121" value="" style="rounded=0;whiteSpace=wrap;html=1;" vertex="1" parent="1">
          <mxGeometry x="1970" y="830" width="10" height="100" as="geometry" />
        </mxCell>
        <mxCell id="qgOPRccc0iJquqA98cd3-122" value="" style="endArrow=none;dashed=1;html=1;dashPattern=1 3;strokeWidth=2;rounded=0;exitX=0.75;exitY=1;exitDx=0;exitDy=0;" edge="1" parent="1">
          <mxGeometry width="50" height="50" relative="1" as="geometry">
            <mxPoint x="1974.6599999999999" y="1130" as="sourcePoint" />
            <mxPoint x="1975.1599999999999" y="1180" as="targetPoint" />
          </mxGeometry>
        </mxCell>
        <mxCell id="qgOPRccc0iJquqA98cd3-123" style="edgeStyle=orthogonalEdgeStyle;rounded=0;orthogonalLoop=1;jettySize=auto;html=1;exitX=0.25;exitY=1;exitDx=0;exitDy=0;dashed=1;" edge="1" parent="1" source="qgOPRccc0iJquqA98cd3-115">
          <mxGeometry relative="1" as="geometry">
            <mxPoint x="1980" y="1110" as="targetPoint" />
            <Array as="points">
              <mxPoint x="2133" y="1110" />
              <mxPoint x="1980" y="1110" />
            </Array>
          </mxGeometry>
        </mxCell>
        <mxCell id="qgOPRccc0iJquqA98cd3-124" value="&lt;font style=&quot;font-size: 8px;&quot;&gt;11: Уведомление о готовых окнах&lt;/font&gt;" style="text;html=1;align=center;verticalAlign=middle;resizable=0;points=[];autosize=1;strokeColor=none;fillColor=none;" vertex="1" parent="1">
          <mxGeometry x="1980" y="1080" width="150" height="30" as="geometry" />
        </mxCell>
        <mxCell id="qgOPRccc0iJquqA98cd3-125" value="&lt;font style=&quot;font-size: 8px;&quot;&gt;12: Открытие записи с предложением&lt;/font&gt;&lt;div&gt;&lt;font style=&quot;font-size: 8px;&quot;&gt;&amp;nbsp;забрать окна&lt;/font&gt;&lt;/div&gt;" style="text;html=1;align=center;verticalAlign=middle;resizable=0;points=[];autosize=1;strokeColor=none;fillColor=none;" vertex="1" parent="1">
          <mxGeometry x="1800" y="1090" width="160" height="40" as="geometry" />
        </mxCell>
        <mxCell id="qgOPRccc0iJquqA98cd3-126" value="" style="rounded=0;whiteSpace=wrap;html=1;" vertex="1" parent="1">
          <mxGeometry x="1790" y="1100" width="10" height="60" as="geometry" />
        </mxCell>
        <mxCell id="qgOPRccc0iJquqA98cd3-127" style="edgeStyle=orthogonalEdgeStyle;rounded=0;orthogonalLoop=1;jettySize=auto;html=1;exitX=0;exitY=1;exitDx=0;exitDy=0;entryX=1.066;entryY=0.649;entryDx=0;entryDy=0;entryPerimeter=0;dashed=1;" edge="1" parent="1" source="qgOPRccc0iJquqA98cd3-119" target="qgOPRccc0iJquqA98cd3-126">
          <mxGeometry relative="1" as="geometry">
            <Array as="points">
              <mxPoint x="1970" y="1140" />
              <mxPoint x="1885" y="1140" />
              <mxPoint x="1885" y="1139" />
            </Array>
          </mxGeometry>
        </mxCell>
        <mxCell id="qgOPRccc0iJquqA98cd3-145" value="Клиент" style="shape=umlActor;verticalLabelPosition=bottom;verticalAlign=top;html=1;" vertex="1" parent="1">
          <mxGeometry x="1865" y="1400" width="30" height="60" as="geometry" />
        </mxCell>
        <mxCell id="qgOPRccc0iJquqA98cd3-146" value="Интерфейс приложения" style="shape=umlBoundary;whiteSpace=wrap;html=1;" vertex="1" parent="1">
          <mxGeometry x="2170" y="1380" width="90" height="70" as="geometry" />
        </mxCell>
        <mxCell id="qgOPRccc0iJquqA98cd3-147" value="Система управления заказами" style="ellipse;shape=umlControl;whiteSpace=wrap;html=1;" vertex="1" parent="1">
          <mxGeometry x="2530" y="1450" width="70" height="80" as="geometry" />
        </mxCell>
        <mxCell id="qgOPRccc0iJquqA98cd3-148" value="Менеджер" style="ellipse;shape=umlEntity;whiteSpace=wrap;html=1;" vertex="1" parent="1">
          <mxGeometry x="2280" y="1710" width="70" height="70" as="geometry" />
        </mxCell>
        <mxCell id="qgOPRccc0iJquqA98cd3-149" value="Поставщик сырья" style="ellipse;shape=umlEntity;whiteSpace=wrap;html=1;" vertex="1" parent="1">
          <mxGeometry x="2530" y="2220" width="70" height="70" as="geometry" />
        </mxCell>
        <mxCell id="qgOPRccc0iJquqA98cd3-150" value="Производственный цех" style="ellipse;shape=umlEntity;whiteSpace=wrap;html=1;" vertex="1" parent="1">
          <mxGeometry x="2050" y="2240" width="70" height="70" as="geometry" />
        </mxCell>
        <mxCell id="qgOPRccc0iJquqA98cd3-152" value="" style="endArrow=none;html=1;rounded=0;exitX=0.5;exitY=0.5;exitDx=0;exitDy=0;exitPerimeter=0;" edge="1" parent="1" source="qgOPRccc0iJquqA98cd3-145" target="qgOPRccc0iJquqA98cd3-146">
          <mxGeometry width="50" height="50" relative="1" as="geometry">
            <mxPoint x="1920" y="1450" as="sourcePoint" />
            <mxPoint x="2160" y="1410" as="targetPoint" />
          </mxGeometry>
        </mxCell>
        <mxCell id="qgOPRccc0iJquqA98cd3-153" value="" style="endArrow=none;html=1;rounded=0;exitX=0.994;exitY=0.499;exitDx=0;exitDy=0;exitPerimeter=0;" edge="1" parent="1" source="qgOPRccc0iJquqA98cd3-146" target="qgOPRccc0iJquqA98cd3-147">
          <mxGeometry width="50" height="50" relative="1" as="geometry">
            <mxPoint x="2280" y="1420" as="sourcePoint" />
            <mxPoint x="2520" y="1480" as="targetPoint" />
          </mxGeometry>
        </mxCell>
        <mxCell id="qgOPRccc0iJquqA98cd3-154" value="" style="endArrow=none;html=1;rounded=0;exitX=0.195;exitY=0.895;exitDx=0;exitDy=0;exitPerimeter=0;entryX=0.947;entryY=0.313;entryDx=0;entryDy=0;entryPerimeter=0;" edge="1" parent="1" source="qgOPRccc0iJquqA98cd3-147" target="qgOPRccc0iJquqA98cd3-148">
          <mxGeometry width="50" height="50" relative="1" as="geometry">
            <mxPoint x="2290" y="1430" as="sourcePoint" />
            <mxPoint x="2360" y="1710" as="targetPoint" />
          </mxGeometry>
        </mxCell>
        <mxCell id="qgOPRccc0iJquqA98cd3-155" value="" style="endArrow=none;html=1;rounded=0;entryX=1;entryY=0;entryDx=0;entryDy=0;exitX=0.218;exitY=1.01;exitDx=0;exitDy=0;exitPerimeter=0;" edge="1" parent="1" source="qgOPRccc0iJquqA98cd3-148" target="qgOPRccc0iJquqA98cd3-150">
          <mxGeometry width="50" height="50" relative="1" as="geometry">
            <mxPoint x="2300" y="1440" as="sourcePoint" />
            <mxPoint x="2540" y="1500" as="targetPoint" />
          </mxGeometry>
        </mxCell>
        <mxCell id="qgOPRccc0iJquqA98cd3-156" value="" style="endArrow=none;html=1;rounded=0;exitX=0.03;exitY=0.297;exitDx=0;exitDy=0;exitPerimeter=0;entryX=1;entryY=1;entryDx=0;entryDy=0;" edge="1" parent="1" source="qgOPRccc0iJquqA98cd3-149" target="qgOPRccc0iJquqA98cd3-148">
          <mxGeometry width="50" height="50" relative="1" as="geometry">
            <mxPoint x="2310" y="1450" as="sourcePoint" />
            <mxPoint x="2550" y="1510" as="targetPoint" />
          </mxGeometry>
        </mxCell>
        <mxCell id="qgOPRccc0iJquqA98cd3-157" value="" style="endArrow=none;html=1;rounded=0;exitX=0.008;exitY=0.634;exitDx=0;exitDy=0;exitPerimeter=0;entryX=1;entryY=0.5;entryDx=0;entryDy=0;" edge="1" parent="1" source="qgOPRccc0iJquqA98cd3-149" target="qgOPRccc0iJquqA98cd3-150">
          <mxGeometry width="50" height="50" relative="1" as="geometry">
            <mxPoint x="2542" y="2121" as="sourcePoint" />
            <mxPoint x="2340" y="1960" as="targetPoint" />
          </mxGeometry>
        </mxCell>
        <mxCell id="qgOPRccc0iJquqA98cd3-159" value="&lt;font style=&quot;font-size: 8px;&quot;&gt;&lt;font style=&quot;&quot;&gt;1: Запрос на покупк&lt;/font&gt;у окна&lt;/font&gt;" style="text;html=1;align=center;verticalAlign=middle;resizable=0;points=[];autosize=1;strokeColor=none;fillColor=none;" vertex="1" parent="1">
          <mxGeometry x="1970" y="1350" width="120" height="30" as="geometry" />
        </mxCell>
        <mxCell id="qgOPRccc0iJquqA98cd3-161" value="&lt;font style=&quot;font-size: 8px;&quot;&gt;12: Открытие записи с предложением&lt;/font&gt;&lt;div&gt;&lt;font style=&quot;font-size: 8px;&quot;&gt;&amp;nbsp;забрать окна&lt;/font&gt;&lt;/div&gt;" style="text;html=1;align=center;verticalAlign=middle;resizable=0;points=[];autosize=1;strokeColor=none;fillColor=none;" vertex="1" parent="1">
          <mxGeometry x="1965" y="1490" width="160" height="40" as="geometry" />
        </mxCell>
        <mxCell id="qgOPRccc0iJquqA98cd3-165" value="" style="endArrow=classic;html=1;rounded=0;" edge="1" parent="1">
          <mxGeometry width="50" height="50" relative="1" as="geometry">
            <mxPoint x="1960" y="1390" as="sourcePoint" />
            <mxPoint x="2140" y="1380" as="targetPoint" />
          </mxGeometry>
        </mxCell>
        <mxCell id="qgOPRccc0iJquqA98cd3-166" value="" style="endArrow=classic;html=1;rounded=0;dashed=1;dashPattern=8 8;" edge="1" parent="1">
          <mxGeometry width="50" height="50" relative="1" as="geometry">
            <mxPoint x="2140" y="1450" as="sourcePoint" />
            <mxPoint x="1950" y="1460" as="targetPoint" />
          </mxGeometry>
        </mxCell>
        <mxCell id="qgOPRccc0iJquqA98cd3-167" value="" style="endArrow=classic;html=1;rounded=0;" edge="1" parent="1">
          <mxGeometry width="50" height="50" relative="1" as="geometry">
            <mxPoint x="2320" y="1380" as="sourcePoint" />
            <mxPoint x="2500" y="1430" as="targetPoint" />
          </mxGeometry>
        </mxCell>
        <mxCell id="qgOPRccc0iJquqA98cd3-168" value="" style="endArrow=classic;html=1;rounded=0;dashed=1;dashPattern=8 8;" edge="1" parent="1">
          <mxGeometry width="50" height="50" relative="1" as="geometry">
            <mxPoint x="2470" y="1510" as="sourcePoint" />
            <mxPoint x="2300" y="1470" as="targetPoint" />
          </mxGeometry>
        </mxCell>
        <mxCell id="qgOPRccc0iJquqA98cd3-169" value="&lt;font style=&quot;&quot;&gt;&lt;font style=&quot;font-size: 8px;&quot;&gt;2: Запрос на составлении заказа&lt;/font&gt;&lt;/font&gt;" style="text;html=1;align=center;verticalAlign=middle;resizable=0;points=[];autosize=1;strokeColor=none;fillColor=none;" vertex="1" parent="1">
          <mxGeometry x="2350" y="1360" width="150" height="30" as="geometry" />
        </mxCell>
        <mxCell id="qgOPRccc0iJquqA98cd3-170" value="&lt;font style=&quot;font-size: 8px;&quot;&gt;11: Уведомление о готовых окнах&lt;/font&gt;" style="text;html=1;align=center;verticalAlign=middle;resizable=0;points=[];autosize=1;strokeColor=none;fillColor=none;" vertex="1" parent="1">
          <mxGeometry x="2260" y="1500" width="150" height="30" as="geometry" />
        </mxCell>
        <mxCell id="qgOPRccc0iJquqA98cd3-171" value="" style="endArrow=classic;html=1;rounded=0;" edge="1" parent="1">
          <mxGeometry width="50" height="50" relative="1" as="geometry">
            <mxPoint x="2540" y="1560" as="sourcePoint" />
            <mxPoint x="2420" y="1710" as="targetPoint" />
          </mxGeometry>
        </mxCell>
        <mxCell id="qgOPRccc0iJquqA98cd3-172" value="" style="endArrow=classic;html=1;rounded=0;dashed=1;dashPattern=8 8;" edge="1" parent="1">
          <mxGeometry width="50" height="50" relative="1" as="geometry">
            <mxPoint x="2410" y="2010" as="sourcePoint" />
            <mxPoint x="2350" y="1850" as="targetPoint" />
          </mxGeometry>
        </mxCell>
        <mxCell id="qgOPRccc0iJquqA98cd3-173" value="&lt;font style=&quot;font-size: 8px;&quot;&gt;3: Запрос на начало создания заказа&lt;/font&gt;" style="text;html=1;align=center;verticalAlign=middle;resizable=0;points=[];autosize=1;strokeColor=none;fillColor=none;" vertex="1" parent="1">
          <mxGeometry x="2490" y="1640" width="160" height="30" as="geometry" />
        </mxCell>
        <mxCell id="qgOPRccc0iJquqA98cd3-174" value="&lt;font style=&quot;font-size: 8px;&quot;&gt;10: Информирование клиента&lt;/font&gt;&lt;div&gt;&lt;font style=&quot;font-size: 8px;&quot;&gt;о готовом заказе&lt;/font&gt;&lt;/div&gt;" style="text;html=1;align=center;verticalAlign=middle;resizable=0;points=[];autosize=1;strokeColor=none;fillColor=none;" vertex="1" parent="1">
          <mxGeometry x="2290" y="1570" width="140" height="40" as="geometry" />
        </mxCell>
        <mxCell id="qgOPRccc0iJquqA98cd3-175" value="" style="endArrow=classic;html=1;rounded=0;" edge="1" parent="1">
          <mxGeometry width="50" height="50" relative="1" as="geometry">
            <mxPoint x="2400" y="1830" as="sourcePoint" />
            <mxPoint x="2480" y="1970" as="targetPoint" />
          </mxGeometry>
        </mxCell>
        <mxCell id="qgOPRccc0iJquqA98cd3-177" value="" style="endArrow=classic;html=1;rounded=0;" edge="1" parent="1">
          <mxGeometry width="50" height="50" relative="1" as="geometry">
            <mxPoint x="2420" y="2310" as="sourcePoint" />
            <mxPoint x="2235" y="2310" as="targetPoint" />
          </mxGeometry>
        </mxCell>
        <mxCell id="qgOPRccc0iJquqA98cd3-178" value="" style="endArrow=classic;html=1;rounded=0;dashed=1;dashPattern=8 8;" edge="1" parent="1">
          <mxGeometry width="50" height="50" relative="1" as="geometry">
            <mxPoint x="2245" y="2240" as="sourcePoint" />
            <mxPoint x="2425" y="2240" as="targetPoint" />
          </mxGeometry>
        </mxCell>
        <mxCell id="qgOPRccc0iJquqA98cd3-179" value="" style="endArrow=classic;html=1;rounded=0;" edge="1" parent="1">
          <mxGeometry width="50" height="50" relative="1" as="geometry">
            <mxPoint x="2170" y="1980" as="sourcePoint" />
            <mxPoint x="2070" y="2200" as="targetPoint" />
          </mxGeometry>
        </mxCell>
        <mxCell id="qgOPRccc0iJquqA98cd3-180" value="" style="endArrow=classic;html=1;rounded=0;dashed=1;dashPattern=8 8;" edge="1" parent="1">
          <mxGeometry width="50" height="50" relative="1" as="geometry">
            <mxPoint x="2170" y="2210" as="sourcePoint" />
            <mxPoint x="2240" y="1990" as="targetPoint" />
          </mxGeometry>
        </mxCell>
        <mxCell id="qgOPRccc0iJquqA98cd3-181" value="&lt;font style=&quot;font-size: 8px;&quot;&gt;4: Запрос на поставку сырья&lt;/font&gt;" style="text;html=1;align=center;verticalAlign=middle;resizable=0;points=[];autosize=1;strokeColor=none;fillColor=none;" vertex="1" parent="1">
          <mxGeometry x="2440" y="1810" width="130" height="30" as="geometry" />
        </mxCell>
        <mxCell id="qgOPRccc0iJquqA98cd3-182" value="&lt;font style=&quot;font-size: 8px;&quot;&gt;5: Договор о поставке сырья&lt;/font&gt;" style="text;html=1;align=center;verticalAlign=middle;resizable=0;points=[];autosize=1;strokeColor=none;fillColor=none;" vertex="1" parent="1">
          <mxGeometry x="2250" y="1890" width="130" height="30" as="geometry" />
        </mxCell>
        <mxCell id="qgOPRccc0iJquqA98cd3-184" value="&lt;span style=&quot;font-size: 8px;&quot;&gt;8: Запрос на информацию о готовности окон&lt;/span&gt;" style="text;html=1;align=center;verticalAlign=middle;resizable=0;points=[];autosize=1;strokeColor=none;fillColor=none;" vertex="1" parent="1">
          <mxGeometry x="1965" y="2000" width="190" height="30" as="geometry" />
        </mxCell>
        <mxCell id="qgOPRccc0iJquqA98cd3-185" value="&lt;font style=&quot;font-size: 8px;&quot;&gt;9: Информация о готовых окнах&lt;/font&gt;" style="text;html=1;align=center;verticalAlign=middle;resizable=0;points=[];autosize=1;strokeColor=none;fillColor=none;" vertex="1" parent="1">
          <mxGeometry x="2200" y="2080" width="140" height="30" as="geometry" />
        </mxCell>
        <mxCell id="qgOPRccc0iJquqA98cd3-187" value="&lt;font style=&quot;font-size: 8px;&quot;&gt;6: Запрос на сырьё&lt;/font&gt;" style="text;html=1;align=center;verticalAlign=middle;resizable=0;points=[];autosize=1;strokeColor=none;fillColor=none;" vertex="1" parent="1">
          <mxGeometry x="2280" y="2330" width="100" height="30" as="geometry" />
        </mxCell>
        <mxCell id="qgOPRccc0iJquqA98cd3-188" value="&lt;font style=&quot;font-size: 8px;&quot;&gt;7: Поставка сырья&lt;/font&gt;" style="text;html=1;align=center;verticalAlign=middle;resizable=0;points=[];autosize=1;strokeColor=none;fillColor=none;" vertex="1" parent="1">
          <mxGeometry x="2290" y="2200" width="90" height="30" as="geometry" />
        </mxCell>
        <mxCell id="qgOPRccc0iJquqA98cd3-195" style="edgeStyle=orthogonalEdgeStyle;rounded=0;orthogonalLoop=1;jettySize=auto;html=1;entryX=1;entryY=0.5;entryDx=0;entryDy=0;" edge="1" parent="1" source="qgOPRccc0iJquqA98cd3-189" target="qgOPRccc0iJquqA98cd3-191">
          <mxGeometry relative="1" as="geometry" />
        </mxCell>
        <mxCell id="qgOPRccc0iJquqA98cd3-196" style="edgeStyle=orthogonalEdgeStyle;rounded=0;orthogonalLoop=1;jettySize=auto;html=1;" edge="1" parent="1" source="qgOPRccc0iJquqA98cd3-189" target="qgOPRccc0iJquqA98cd3-194">
          <mxGeometry relative="1" as="geometry">
            <Array as="points">
              <mxPoint x="3235" y="1190" />
              <mxPoint x="3235" y="1190" />
            </Array>
          </mxGeometry>
        </mxCell>
        <mxCell id="qgOPRccc0iJquqA98cd3-197" style="edgeStyle=orthogonalEdgeStyle;rounded=0;orthogonalLoop=1;jettySize=auto;html=1;exitX=0.733;exitY=0.195;exitDx=0;exitDy=0;exitPerimeter=0;" edge="1" parent="1" source="qgOPRccc0iJquqA98cd3-189" target="qgOPRccc0iJquqA98cd3-193">
          <mxGeometry relative="1" as="geometry">
            <Array as="points">
              <mxPoint x="3251" y="950" />
              <mxPoint x="3455" y="950" />
            </Array>
          </mxGeometry>
        </mxCell>
        <mxCell id="qgOPRccc0iJquqA98cd3-198" style="edgeStyle=orthogonalEdgeStyle;rounded=0;orthogonalLoop=1;jettySize=auto;html=1;" edge="1" parent="1" source="qgOPRccc0iJquqA98cd3-189" target="qgOPRccc0iJquqA98cd3-192">
          <mxGeometry relative="1" as="geometry">
            <Array as="points">
              <mxPoint x="3235" y="860" />
              <mxPoint x="3135" y="860" />
            </Array>
          </mxGeometry>
        </mxCell>
        <mxCell id="qgOPRccc0iJquqA98cd3-221" style="edgeStyle=orthogonalEdgeStyle;rounded=0;orthogonalLoop=1;jettySize=auto;html=1;entryX=0;entryY=0.5;entryDx=0;entryDy=0;" edge="1" parent="1" source="qgOPRccc0iJquqA98cd3-189" target="qgOPRccc0iJquqA98cd3-220">
          <mxGeometry relative="1" as="geometry">
            <Array as="points">
              <mxPoint x="3545" y="970" />
              <mxPoint x="3545" y="940" />
            </Array>
          </mxGeometry>
        </mxCell>
        <mxCell id="qgOPRccc0iJquqA98cd3-222" style="edgeStyle=orthogonalEdgeStyle;rounded=0;orthogonalLoop=1;jettySize=auto;html=1;entryX=0;entryY=0.5;entryDx=0;entryDy=0;" edge="1" parent="1" source="qgOPRccc0iJquqA98cd3-189" target="qgOPRccc0iJquqA98cd3-218">
          <mxGeometry relative="1" as="geometry">
            <Array as="points">
              <mxPoint x="3520" y="990" />
              <mxPoint x="3520" y="1139" />
            </Array>
          </mxGeometry>
        </mxCell>
        <mxCell id="qgOPRccc0iJquqA98cd3-223" style="edgeStyle=orthogonalEdgeStyle;rounded=0;orthogonalLoop=1;jettySize=auto;html=1;entryX=0;entryY=0.5;entryDx=0;entryDy=0;" edge="1" parent="1" source="qgOPRccc0iJquqA98cd3-189" target="qgOPRccc0iJquqA98cd3-219">
          <mxGeometry relative="1" as="geometry">
            <Array as="points">
              <mxPoint x="3400" y="1010" />
              <mxPoint x="3400" y="1240" />
            </Array>
          </mxGeometry>
        </mxCell>
        <mxCell id="qgOPRccc0iJquqA98cd3-230" style="edgeStyle=orthogonalEdgeStyle;rounded=0;orthogonalLoop=1;jettySize=auto;html=1;entryX=1;entryY=0.5;entryDx=0;entryDy=0;" edge="1" parent="1" source="qgOPRccc0iJquqA98cd3-189" target="qgOPRccc0iJquqA98cd3-217">
          <mxGeometry relative="1" as="geometry">
            <Array as="points">
              <mxPoint x="3120" y="1010" />
              <mxPoint x="3120" y="1270" />
            </Array>
          </mxGeometry>
        </mxCell>
        <mxCell id="qgOPRccc0iJquqA98cd3-189" value="Система управления&lt;div&gt;заказами&lt;/div&gt;" style="ellipse;shape=umlControl;whiteSpace=wrap;html=1;" vertex="1" parent="1">
          <mxGeometry x="3200" y="940" width="70" height="80" as="geometry" />
        </mxCell>
        <mxCell id="qgOPRccc0iJquqA98cd3-191" value="Производственный цех" style="ellipse;shape=umlEntity;whiteSpace=wrap;html=1;" vertex="1" parent="1">
          <mxGeometry x="2950" y="955" width="70" height="70" as="geometry" />
        </mxCell>
        <mxCell id="qgOPRccc0iJquqA98cd3-192" value="Поставщик сырья" style="ellipse;shape=umlEntity;whiteSpace=wrap;html=1;" vertex="1" parent="1">
          <mxGeometry x="3100" y="705" width="70" height="70" as="geometry" />
        </mxCell>
        <mxCell id="qgOPRccc0iJquqA98cd3-193" value="Менеджер" style="ellipse;shape=umlEntity;whiteSpace=wrap;html=1;" vertex="1" parent="1">
          <mxGeometry x="3420" y="630" width="70" height="70" as="geometry" />
        </mxCell>
        <mxCell id="qgOPRccc0iJquqA98cd3-194" value="Интерфейс приложения" style="shape=umlBoundary;whiteSpace=wrap;html=1;" vertex="1" parent="1">
          <mxGeometry x="3190" y="1260" width="90" height="70" as="geometry" />
        </mxCell>
        <mxCell id="qgOPRccc0iJquqA98cd3-199" value="&lt;div&gt;- name: str&lt;/div&gt;&lt;div&gt;- employee_id: int&lt;/div&gt;&lt;div&gt;- orders: List[Order]&lt;/div&gt;&lt;div&gt;&lt;br&gt;&lt;/div&gt;&lt;div&gt;+ отслеживатьЗаказ()&lt;/div&gt;&lt;div&gt;+ создатьЗаказ()&lt;br&gt;&lt;/div&gt;&lt;div&gt;+ обновитьСтатусЗаказа()&lt;/div&gt;&lt;div&gt;+ управлятьПоставщиками()&lt;/div&gt;&lt;div&gt;+ управлятьПроизводством()&lt;/div&gt;" style="text;html=1;align=left;verticalAlign=middle;resizable=0;points=[];autosize=1;strokeColor=none;fillColor=none;" vertex="1" parent="1">
          <mxGeometry x="3510" y="640" width="190" height="140" as="geometry" />
        </mxCell>
        <mxCell id="qgOPRccc0iJquqA98cd3-200" value="" style="endArrow=none;html=1;rounded=0;exitX=-0.004;exitY=0.433;exitDx=0;exitDy=0;exitPerimeter=0;" edge="1" parent="1">
          <mxGeometry width="50" height="50" relative="1" as="geometry">
            <mxPoint x="3506.39" y="697.9999999999999" as="sourcePoint" />
            <mxPoint x="3700" y="698" as="targetPoint" />
          </mxGeometry>
        </mxCell>
        <mxCell id="qgOPRccc0iJquqA98cd3-201" value="&lt;div&gt;- name: str&lt;/div&gt;&lt;div&gt;- supplier_id: int&lt;/div&gt;&lt;div&gt;- materials: List[str]&lt;/div&gt;&lt;div&gt;&lt;br&gt;&lt;/div&gt;&lt;div style=&quot;&quot;&gt;+ поставлятьМатериал()&lt;/div&gt;" style="text;html=1;align=left;verticalAlign=middle;resizable=0;points=[];autosize=1;strokeColor=none;fillColor=none;" vertex="1" parent="1">
          <mxGeometry x="3200" y="680" width="160" height="90" as="geometry" />
        </mxCell>
        <mxCell id="qgOPRccc0iJquqA98cd3-202" value="" style="endArrow=none;html=1;rounded=0;exitX=0;exitY=0.667;exitDx=0;exitDy=0;exitPerimeter=0;entryX=1;entryY=0.667;entryDx=0;entryDy=0;entryPerimeter=0;" edge="1" parent="1" source="qgOPRccc0iJquqA98cd3-201" target="qgOPRccc0iJquqA98cd3-201">
          <mxGeometry width="50" height="50" relative="1" as="geometry">
            <mxPoint x="3420" y="990" as="sourcePoint" />
            <mxPoint x="3470" y="940" as="targetPoint" />
          </mxGeometry>
        </mxCell>
        <mxCell id="qgOPRccc0iJquqA98cd3-203" value="&lt;div&gt;- centre_id: int&lt;/div&gt;&lt;div&gt;- capacity: int&lt;/div&gt;&lt;div&gt;- current_orders: List[Order]&lt;/div&gt;&lt;div&gt;&lt;br&gt;&lt;/div&gt;&lt;div&gt;+ начатьПроизводство()&lt;/div&gt;&lt;div&gt;+ завершитьПроизводство()&lt;/div&gt;" style="text;html=1;align=left;verticalAlign=middle;resizable=0;points=[];autosize=1;strokeColor=none;fillColor=none;" vertex="1" parent="1">
          <mxGeometry x="2842.52" y="1000" width="180" height="100" as="geometry" />
        </mxCell>
        <mxCell id="qgOPRccc0iJquqA98cd3-204" value="" style="endArrow=none;html=1;rounded=0;exitX=-0.014;exitY=0.618;exitDx=0;exitDy=0;exitPerimeter=0;" edge="1" parent="1" source="qgOPRccc0iJquqA98cd3-203">
          <mxGeometry width="50" height="50" relative="1" as="geometry">
            <mxPoint x="3017.52" y="1066.17" as="sourcePoint" />
            <mxPoint x="3037.52" y="1062" as="targetPoint" />
          </mxGeometry>
        </mxCell>
        <mxCell id="qgOPRccc0iJquqA98cd3-206" value="&lt;div&gt;&lt;span style=&quot;background-color: initial;&quot;&gt;&lt;br&gt;&lt;/span&gt;&lt;/div&gt;&lt;div&gt;&lt;span style=&quot;background-color: initial;&quot;&gt;+ создатьЗаказИнтерфейс()&lt;/span&gt;&lt;br&gt;&lt;/div&gt;&lt;div&gt;+ получитьДеталиЗаказаОтПользователя()&lt;/div&gt;&lt;div&gt;+ отслеживатьЗаказИнтерфейс()&lt;/div&gt;&lt;div&gt;+ получитьИдентификаторЗаказаОтПользователя()&lt;/div&gt;&lt;div&gt;+ обновитьСтатусЗаказаИнтерфейс()&lt;/div&gt;&lt;div&gt;+ получитьСтатусОтПользователя()&lt;/div&gt;" style="text;html=1;align=left;verticalAlign=middle;resizable=0;points=[];autosize=1;strokeColor=none;fillColor=none;" vertex="1" parent="1">
          <mxGeometry x="3322" y="1290" width="310" height="110" as="geometry" />
        </mxCell>
        <mxCell id="qgOPRccc0iJquqA98cd3-207" value="" style="endArrow=none;html=1;rounded=0;entryX=0.999;entryY=0.068;entryDx=0;entryDy=0;entryPerimeter=0;exitX=0.008;exitY=0.105;exitDx=0;exitDy=0;exitPerimeter=0;" edge="1" parent="1" source="qgOPRccc0iJquqA98cd3-206" target="qgOPRccc0iJquqA98cd3-206">
          <mxGeometry width="50" height="50" relative="1" as="geometry">
            <mxPoint x="3192" y="1260" as="sourcePoint" />
            <mxPoint x="3242" y="1210" as="targetPoint" />
          </mxGeometry>
        </mxCell>
        <mxCell id="qgOPRccc0iJquqA98cd3-208" value="1" style="text;html=1;align=center;verticalAlign=middle;resizable=0;points=[];autosize=1;strokeColor=none;fillColor=none;" vertex="1" parent="1">
          <mxGeometry x="3230" y="915" width="30" height="30" as="geometry" />
        </mxCell>
        <mxCell id="qgOPRccc0iJquqA98cd3-209" value="1..n" style="text;html=1;align=center;verticalAlign=middle;resizable=0;points=[];autosize=1;strokeColor=none;fillColor=none;" vertex="1" parent="1">
          <mxGeometry x="3140" y="775" width="40" height="30" as="geometry" />
        </mxCell>
        <mxCell id="qgOPRccc0iJquqA98cd3-210" value="1" style="text;html=1;align=center;verticalAlign=middle;resizable=0;points=[];autosize=1;strokeColor=none;fillColor=none;" vertex="1" parent="1">
          <mxGeometry x="3260" y="925" width="30" height="30" as="geometry" />
        </mxCell>
        <mxCell id="qgOPRccc0iJquqA98cd3-211" value="1..n" style="text;html=1;align=center;verticalAlign=middle;resizable=0;points=[];autosize=1;strokeColor=none;fillColor=none;" vertex="1" parent="1">
          <mxGeometry x="3410" y="698" width="40" height="30" as="geometry" />
        </mxCell>
        <mxCell id="qgOPRccc0iJquqA98cd3-212" value="1" style="text;html=1;align=center;verticalAlign=middle;resizable=0;points=[];autosize=1;strokeColor=none;fillColor=none;" vertex="1" parent="1">
          <mxGeometry x="3235" y="1035" width="30" height="30" as="geometry" />
        </mxCell>
        <mxCell id="qgOPRccc0iJquqA98cd3-213" value="1" style="text;html=1;align=center;verticalAlign=middle;resizable=0;points=[];autosize=1;strokeColor=none;fillColor=none;" vertex="1" parent="1">
          <mxGeometry x="3242" y="1230" width="30" height="30" as="geometry" />
        </mxCell>
        <mxCell id="qgOPRccc0iJquqA98cd3-214" value="1..n" style="text;html=1;align=center;verticalAlign=middle;resizable=0;points=[];autosize=1;strokeColor=none;fillColor=none;" vertex="1" parent="1">
          <mxGeometry x="3030" y="948" width="40" height="30" as="geometry" />
        </mxCell>
        <mxCell id="qgOPRccc0iJquqA98cd3-215" value="1" style="text;html=1;align=center;verticalAlign=middle;resizable=0;points=[];autosize=1;strokeColor=none;fillColor=none;" vertex="1" parent="1">
          <mxGeometry x="3180" y="945" width="30" height="30" as="geometry" />
        </mxCell>
        <mxCell id="qgOPRccc0iJquqA98cd3-216" value="" style="endArrow=classic;html=1;rounded=0;dashed=1;dashPattern=8 8;" edge="1" parent="1">
          <mxGeometry width="50" height="50" relative="1" as="geometry">
            <mxPoint x="2370" y="1670" as="sourcePoint" />
            <mxPoint x="2490" y="1550" as="targetPoint" />
          </mxGeometry>
        </mxCell>
        <mxCell id="qgOPRccc0iJquqA98cd3-217" value="Клиент" style="ellipse;shape=umlEntity;whiteSpace=wrap;html=1;" vertex="1" parent="1">
          <mxGeometry x="2827" y="1240" width="68" height="60" as="geometry" />
        </mxCell>
        <mxCell id="qgOPRccc0iJquqA98cd3-218" value="Окно" style="ellipse;shape=umlEntity;whiteSpace=wrap;html=1;" vertex="1" parent="1">
          <mxGeometry x="3860" y="1109" width="68" height="60" as="geometry" />
        </mxCell>
        <mxCell id="qgOPRccc0iJquqA98cd3-219" value="Заказ" style="ellipse;shape=umlEntity;whiteSpace=wrap;html=1;" vertex="1" parent="1">
          <mxGeometry x="3700" y="1210" width="68" height="60" as="geometry" />
        </mxCell>
        <mxCell id="qgOPRccc0iJquqA98cd3-220" value="Сырьё" style="ellipse;shape=umlEntity;whiteSpace=wrap;html=1;" vertex="1" parent="1">
          <mxGeometry x="3820" y="910" width="68" height="60" as="geometry" />
        </mxCell>
        <mxCell id="qgOPRccc0iJquqA98cd3-224" value="1" style="text;html=1;align=center;verticalAlign=middle;resizable=0;points=[];autosize=1;strokeColor=none;fillColor=none;" vertex="1" parent="1">
          <mxGeometry x="3265" y="1008" width="30" height="30" as="geometry" />
        </mxCell>
        <mxCell id="qgOPRccc0iJquqA98cd3-225" value="1..n" style="text;html=1;align=center;verticalAlign=middle;resizable=0;points=[];autosize=1;strokeColor=none;fillColor=none;" vertex="1" parent="1">
          <mxGeometry x="3660" y="1218" width="40" height="30" as="geometry" />
        </mxCell>
        <mxCell id="qgOPRccc0iJquqA98cd3-226" value="1" style="text;html=1;align=center;verticalAlign=middle;resizable=0;points=[];autosize=1;strokeColor=none;fillColor=none;" vertex="1" parent="1">
          <mxGeometry x="3270" y="983" width="30" height="30" as="geometry" />
        </mxCell>
        <mxCell id="qgOPRccc0iJquqA98cd3-227" value="1..n" style="text;html=1;align=center;verticalAlign=middle;resizable=0;points=[];autosize=1;strokeColor=none;fillColor=none;" vertex="1" parent="1">
          <mxGeometry x="3800" y="1108" width="40" height="30" as="geometry" />
        </mxCell>
        <mxCell id="qgOPRccc0iJquqA98cd3-228" value="1..n" style="text;html=1;align=center;verticalAlign=middle;resizable=0;points=[];autosize=1;strokeColor=none;fillColor=none;" vertex="1" parent="1">
          <mxGeometry x="3750" y="898" width="40" height="30" as="geometry" />
        </mxCell>
        <mxCell id="qgOPRccc0iJquqA98cd3-229" value="1" style="text;html=1;align=center;verticalAlign=middle;resizable=0;points=[];autosize=1;strokeColor=none;fillColor=none;" vertex="1" parent="1">
          <mxGeometry x="3265" y="960" width="30" height="30" as="geometry" />
        </mxCell>
        <mxCell id="qgOPRccc0iJquqA98cd3-231" value="1" style="text;html=1;align=center;verticalAlign=middle;resizable=0;points=[];autosize=1;strokeColor=none;fillColor=none;" vertex="1" parent="1">
          <mxGeometry x="3165" y="988" width="30" height="30" as="geometry" />
        </mxCell>
        <mxCell id="qgOPRccc0iJquqA98cd3-232" value="1..n" style="text;html=1;align=center;verticalAlign=middle;resizable=0;points=[];autosize=1;strokeColor=none;fillColor=none;" vertex="1" parent="1">
          <mxGeometry x="2895" y="1240" width="40" height="30" as="geometry" />
        </mxCell>
        <mxCell id="qgOPRccc0iJquqA98cd3-233" value="&lt;div&gt;- id_order&lt;/div&gt;&lt;div&gt;- windows (list of windows)&lt;/div&gt;&lt;div&gt;- order_requirements&lt;/div&gt;&lt;div&gt;- order_date&lt;/div&gt;" style="text;html=1;align=left;verticalAlign=middle;resizable=0;points=[];autosize=1;strokeColor=none;fillColor=none;" vertex="1" parent="1">
          <mxGeometry x="3758" y="1280" width="170" height="70" as="geometry" />
        </mxCell>
        <mxCell id="qgOPRccc0iJquqA98cd3-234" value="&lt;div&gt;- id_window&lt;/div&gt;&lt;div&gt;- width&lt;/div&gt;&lt;div&gt;- height&lt;/div&gt;&lt;div&gt;- material&lt;/div&gt;&lt;div&gt;- glass_type&lt;/div&gt;" style="text;html=1;align=left;verticalAlign=middle;resizable=0;points=[];autosize=1;strokeColor=none;fillColor=none;" vertex="1" parent="1">
          <mxGeometry x="3928" y="1160" width="90" height="90" as="geometry" />
        </mxCell>
        <mxCell id="qgOPRccc0iJquqA98cd3-236" value="&lt;div&gt;- id_materials&lt;/div&gt;&lt;div&gt;- material_type&lt;/div&gt;&lt;div&gt;- quantity&lt;/div&gt;" style="text;html=1;align=left;verticalAlign=middle;resizable=0;points=[];autosize=1;strokeColor=none;fillColor=none;" vertex="1" parent="1">
          <mxGeometry x="3888" y="965" width="100" height="60" as="geometry" />
        </mxCell>
        <mxCell id="qgOPRccc0iJquqA98cd3-237" value="&lt;div&gt;- id_customer&lt;/div&gt;&lt;div&gt;- name&lt;/div&gt;&lt;div&gt;- contact_information&lt;/div&gt;&lt;div&gt;&lt;br&gt;&lt;/div&gt;&lt;div&gt;&lt;div&gt;+ получитьИмя():&lt;/div&gt;&lt;div&gt;+ получитьКонтактнуюИнформацию()&lt;/div&gt;&lt;div&gt;+ установитьКонтактнуюИнформацию()&lt;/div&gt;&lt;div&gt;+ разместитьЗаказ()&lt;/div&gt;&lt;div&gt;+ отменитьЗаказ()&lt;/div&gt;&lt;div&gt;+ просмотретьЗаказы()&lt;/div&gt;&lt;div&gt;+ получитьЗаказ()&lt;/div&gt;&lt;/div&gt;" style="text;html=1;align=left;verticalAlign=middle;resizable=0;points=[];autosize=1;strokeColor=none;fillColor=none;" vertex="1" parent="1">
          <mxGeometry x="2880" y="1305" width="240" height="170" as="geometry" />
        </mxCell>
        <mxCell id="qgOPRccc0iJquqA98cd3-238" value="" style="endArrow=none;html=1;rounded=0;exitX=-0.005;exitY=0.346;exitDx=0;exitDy=0;exitPerimeter=0;entryX=1;entryY=0.346;entryDx=0;entryDy=0;entryPerimeter=0;" edge="1" parent="1" source="qgOPRccc0iJquqA98cd3-237" target="qgOPRccc0iJquqA98cd3-237">
          <mxGeometry width="50" height="50" relative="1" as="geometry">
            <mxPoint x="2940" y="1300" as="sourcePoint" />
            <mxPoint x="2990" y="1250" as="targetPoint" />
          </mxGeometry>
        </mxCell>
      </root>
    </mxGraphModel>
  </diagram>
</mxfile>
